<svg id="visual" viewBox="0 0 900 600" xmlns="http://www.w3.org/2000/svg" xmlns:xlink="http://www.w3.org/1999/xlink" version="1.1"><path d="M0 293L50 303.2C100 313.3 200 333.7 300 332.3C400 331 500 308 600 290.7C700 273.3 800 261.7 850 255.8L900 250L900 601L850 601C800 601 700 601 600 601C500 601 400 601 300 601C200 601 100 601 50 601L0 601Z" fill="#c62368"></path><path d="M0 289L50 302.3C100 315.7 200 342.3 300 368.3C400 394.3 500 419.7 600 427C700 434.3 800 423.7 850 418.3L900 413L900 601L850 601C800 601 700 601 600 601C500 601 400 601 300 601C200 601 100 601 50 601L0 601Z" fill="#e34c67"></path><path d="M0 508L50 489.7C100 471.3 200 434.7 300 434.5C400 434.3 500 470.7 600 481.3C700 492 800 477 850 469.5L900 462L900 601L850 601C800 601 700 601 600 601C500 601 400 601 300 601C200 601 100 601 50 601L0 601Z" fill="#fa7268"></path></svg>