<svg id="visual" viewBox="0 0 900 600" width="900" height="600" xmlns="http://www.w3.org/2000/svg" xmlns:xlink="http://www.w3.org/1999/xlink" version="1.1"><g transform="translate(478.2188182490277 275.5754276783145)"><path d="M137.2 -170.4C155.6 -148 133.2 -83.8 139.8 -27.5C146.3 28.8 181.8 77.2 180.5 127.4C179.1 177.6 140.9 229.8 97.2 229.4C53.5 229 4.3 176 -51.6 151.5C-107.5 126.9 -170.2 130.7 -205 102.7C-239.7 74.8 -246.4 15.1 -223.9 -26.9C-201.5 -68.8 -149.9 -93 -107.7 -111.2C-65.6 -129.5 -32.8 -141.7 13.3 -157.6C59.4 -173.4 118.7 -192.8 137.2 -170.4" fill="#3b82f6"></path></g></svg>