
<svg version="1.1" xmlns="http://www.w3.org/2000/svg" xmlns:xlink="http://www.w3.org/1999/xlink" viewBox="0 0 1000 1000" enable-background="new 0 0 1000 1000" xml:space="preserve">
<g><g fill='#ffffff' transform="translate(0.000000,511.000000) scale(0.100000,-0.100000)"><path d="M3901.7,5007c-9.7-16.2,0-197.6,19.4-404.9c42.1-408.1,29.2-466.5-139.3-673.8c-103.6-129.6-113.4-340.1-32.4-605.7c116.6-385.5,285.1-492.4,226.7-142.5c-13,84.2-25.9,233.2-25.9,330.4c-3.2,155.5,12.9,200.8,119.8,353.1c110.1,165.2,119.9,194.4,116.6,388.7c-3.2,139.3-35.6,307.7-97.2,485.9C4002.1,4994.1,3943.8,5075.1,3901.7,5007z"/><path d="M4419.9,5007c-9.7-16.2,0-197.6,19.4-404.9c42.1-408.1,29.2-466.5-139.3-673.8c-103.6-129.6-113.4-340.1-32.4-605.7c116.6-385.5,285.1-492.4,226.7-142.5c-12.9,84.2-25.9,233.2-25.9,330.4c-3.2,155.5,13,200.8,119.8,353.1c110.1,165.2,119.9,194.4,116.6,388.7c-3.2,139.3-35.6,307.7-97.2,485.9C4520.3,4994.1,4462,5075.1,4419.9,5007z"/><path d="M4938.2,5007c-9.7-16.2,0-197.6,19.4-404.9c42.1-408.1,29.2-466.5-139.3-673.8c-103.6-129.6-113.4-340.1-32.4-605.7c116.6-385.5,285.1-492.4,226.8-142.5c-13,84.2-25.9,233.2-25.9,330.4c-3.2,155.5,13,200.8,119.9,353.1c110.1,165.2,119.9,194.4,116.6,388.7c-3.2,139.3-35.6,307.7-97.2,485.9C5038.6,4994.1,4980.3,5075.1,4938.2,5007z"/><path d="M400.1,2389.8c-149-77.7-204.1-139.3-262.4-291.5c-45.3-123.1-48.6-181.4-16.2-456.7c281.8-2358.1,949.1-4211,1907.9-5305.8c693.2-793.6,1626.1-1198.5,2610.8-1140.2c1091.6,68,1972.7,621.9,2678.8,1690.9c200.8,301.2,476.2,819.5,628.4,1188.8l87.5,213.8l427.6,16.2c751.5,25.9,783.9,51.8,1172.6,929.7c262.4,592.8,278.6,641.4,259.1,793.6c-29.1,249.4-106.9,447-236.5,599.2c-171.7,200.8-320.7,259.1-670.5,259.1h-285l16.2,90.7c9.7,51.8,42.1,304.5,74.5,560.4c51.8,447,51.8,476.2-3.2,592.8c-32.4,64.8-110.1,158.7-171.7,207.3l-113.4,87.5l-4003.7,9.7C915.1,2441.6,487.5,2435.1,400.1,2389.8z M8300.5,1771.1c-369.3-3067.5-1311.9-5108.2-2675.6-5794.9c-382.2-194.3-664.1-252.7-1159.7-252.7c-505.3,0-719.1,45.4-1117.5,236.5C1958.1-3376,1005.8-1335.3,630.1,1771.1l-19.4,152.2h3854.6H8320L8300.5,1771.1z M9256.1,300.5c32.4-35.6,77.7-129.6,97.2-204.1c32.4-136.1,25.9-158.7-200.8-670.5c-178.2-398.4-255.9-540.9-314.2-570.1c-110.1-55.1-466.5-55.1-443.8,0c6.5,19.4,97.2,346.6,197.6,719.1c103.6,375.7,191.1,706.1,200.8,738.5C8818.8,400.9,9168.6,391.2,9256.1,300.5z"/><path d="M1825.3-749c-106.9-103.7-103.7-187.9,35.6-560.4c349.8-942.6,868.1-1720,1383.1-2076.3c803.3-550.7,1836.7-508.5,2581.7,110.1c489.1,401.7,984.7,1205,1282.7,2069.8c97.2,281.8,97.2,359.6-3.2,456.7l-77.7,81H4465.3H1903.1L1825.3-749z"/></g></g>
</svg>